{"title":"Johan.Falk.Barninfiltratoren.2012.720p.BluRay.x264-KraBBa","uid":7805072,"size":5348375710,"categoryP":"video","categoryS":"hd___movies","magnet":"?xt=urn:btih:50c57bda01f5f3dc0c533408f204ab545498d52d&amp;dn=Johan.Falk.Barninfiltratoren.2012.720p.BluRay.x264-KraBBa&amp;tr=udp%3A%2F%2Ftracker.openbittorrent.com%3A80&amp;tr=udp%3A%2F%2Fopen.demonii.com%3A1337&amp;tr=udp%3A%2F%2Ftracker.coppersurfer.tk%3A6969&amp;tr=udp%3A%2F%2Fexodus.desync.com%3A6969","seeders":0,"leechers":1,"uploader":"SWAXXON","files":56,"time":1352335208,"description":"General\nComplete name                  : KraBBa-Binfiltra.mkv\nFormat                         : Matroska\nFormat version                 : Version 2\nFile size                      : 4.94 GiB\nDuration                       : 1h 36mn\nOverall bit rate               : 7 313 Kbps\nEncoded date                   : UTC 2012-11-08 08:56:59\nWriting application            : mkvmerge v5.8.0 ('No Sleep / Pillow') built on Sep  2 2012 15:37:04\nWriting library                : libebml v1.2.3 + libmatroska v1.3.0\n\nVideo\nID                             : 1\nFormat                         : AVC\nFormat/Info                    : Advanced Video Codec\nFormat profile                 : &lt;a class=&quot;__cf_email__&quot; href=&quot;/cdn-cgi/l/email-protection&quot; data-cfemail=&quot;99d1f0fef1d9d5adb7a8&quot;&gt;[email&amp;#160;protected]&lt;/a&gt;&lt;script cf-hash='f9e31' type=&quot;text/javascript&quot;&gt;\n/* &lt;![CDATA[ */!function(){try{var t=&quot;currentScript&quot;in document?document.currentScript:function(){for(var t=document.getElementsByTagName(&quot;script&quot;),e=t.length;e--;)if(t[e].getAttribute(&quot;cf-hash&quot;))return t[e]}();if(t&amp;&amp;t.previousSibling){var e,r,n,i,c=t.previousSibling,a=c.getAttribute(&quot;data-cfemail&quot;);if(a){for(e=&quot;&quot;,r=parseInt(a.substr(0,2),16),n=2;a.length-n;n+=2)i=parseInt(a.substr(n,2),16)^r,e+=String.fromCharCode(i);e=document.createTextNode(e),c.parentNode.replaceChild(e,c)}}}catch(u){}}();/* ]]&gt; */&lt;/script&gt;\nFormat settings, CABAC         : Yes\nFormat settings, ReFrames      : 5 frames\nCodec ID                       : V_MPEG4/ISO/AVC\nDuration                       : 1h 36mn\nBit rate                       : 5 804 Kbps\nWidth                          : 1 280 pixels\nHeight                         : 720 pixels\nDisplay aspect ratio           : 16:9\nFrame rate mode                : Constant\nFrame rate                     : 23.976 fps\nColor space                    : YUV\nChroma subsampling             : 4:2:0\nBit depth                      : 8 bits\nScan type                      : Progressive\nBits/(Pixel*Frame)             : 0.263\nStream size                    : 3.82 GiB (77%)\nWriting library                : x264 core 128 r2216 198a7ea\nDefault                        : Yes\nForced                         : No\n\nAudio\nID                             : 2\nFormat                         : DTS\nFormat/Info                    : Digital Theater Systems\nCodec ID                       : A_DTS\nDuration                       : 1h 36mn\nBit rate mode                  : Constant\nBit rate                       : 1 510 Kbps\nChannel(s)                     : 6 channels\nChannel positions              : Front: L C R, Side: L R, LFE\nSampling rate                  : 48.0 KHz\nBit depth                      : 24 bits\nCompression mode               : Lossy\nStream size                    : 1.02 GiB (21%)\nLanguage                       : Swedish\nDefault                        : Yes\nForced                         : No\n\n","torrent":{"xt":"urn:btih:50c57bda01f5f3dc0c533408f204ab545498d52d","amp;dn":"Johan.Falk.Barninfiltratoren.2012.720p.BluRay.x264-KraBBa","amp;tr":["udp%3A%2F%2Ftracker.openbittorrent.com%3A80","udp%3A%2F%2Fopen.demonii.com%3A1337","udp%3A%2F%2Ftracker.coppersurfer.tk%3A6969","udp%3A%2F%2Fexodus.desync.com%3A6969"],"infoHash":"50c57bda01f5f3dc0c533408f204ab545498d52d","infoHashBuffer":{"type":"Buffer","data":[80,197,123,218,1,245,243,220,12,83,52,8,242,4,171,84,84,152,213,45]},"announce":[],"urlList":[]}}